<?xml version="1.0" standalone="no"?>
<!DOCTYPE svg PUBLIC "-//W3C//DTD SVG 20010904//EN"
 "http://www.w3.org/TR/2001/REC-SVG-20010904/DTD/svg10.dtd">
<svg version="1.0" xmlns="http://www.w3.org/2000/svg"
 width="386.000000pt" height="120.000000pt" viewBox="0 0 386.000000 120.000000"
 preserveAspectRatio="xMidYMid meet">

<g transform="translate(0.000000,120.000000) scale(0.100000,-0.100000)"
fill="#000000" stroke="none">
<path d="M503 1189 c-74 -22 -103 -66 -276 -419 -91 -184 -177 -365 -191 -402
-43 -110 -32 -196 37 -274 58 -66 107 -89 193 -88 88 0 154 30 240 108 l59 53
57 -52 c84 -78 156 -110 243 -110 78 1 118 16 173 69 56 52 76 101 77 186 0
73 -2 79 -80 245 -109 235 -282 573 -311 612 -49 65 -144 96 -221 72z m132
-87 c35 -22 111 -160 258 -467 162 -340 168 -357 148 -432 -13 -49 -71 -105
-126 -123 -73 -24 -168 13 -262 103 -18 17 -33 34 -33 38 0 4 22 40 50 80 80
116 112 226 90 307 -12 47 -59 106 -99 126 -80 41 -185 22 -244 -43 -84 -93
-70 -219 44 -390 27 -41 49 -77 49 -81 0 -14 -98 -99 -141 -121 -31 -16 -61
-23 -105 -24 -79 0 -124 29 -161 104 -24 49 -26 58 -16 105 12 55 178 413 298
641 70 133 100 175 135 188 32 12 86 6 115 -11z m-33 -422 c20 -6 48 -24 62
-41 33 -39 36 -122 5 -189 -30 -66 -92 -160 -104 -157 -18 6 -84 109 -105 164
-29 77 -27 143 6 182 21 25 56 44 94 50 3 1 22 -4 42 -9z"/>
<path d="M1900 948 c-11 -12 -20 -35 -20 -50 0 -36 40 -78 75 -78 36 0 75 42
75 80 0 64 -85 96 -130 48z"/>
<path d="M2410 640 l0 -330 50 0 c35 0 52 5 56 14 5 12 11 11 37 -5 39 -23
122 -25 175 -3 132 55 180 230 97 356 -57 86 -202 123 -274 70 l-31 -23 0 126
0 125 -55 0 -55 0 0 -330z m311 -18 c24 -27 29 -41 29 -86 0 -44 -5 -60 -25
-85 -45 -53 -121 -64 -180 -25 -24 15 -25 21 -25 104 0 85 1 90 28 110 23 18
37 21 86 18 51 -4 63 -9 87 -36z"/>
<path d="M3390 640 l0 -330 55 0 c43 0 55 3 55 16 0 13 6 12 35 -6 30 -19 47
-22 105 -18 58 3 76 9 112 35 141 102 127 325 -25 405 -54 28 -151 31 -190 6
-14 -10 -29 -18 -32 -18 -3 0 -5 54 -5 120 l0 120 -55 0 -55 0 0 -330z m291 3
c81 -48 75 -179 -11 -225 -42 -23 -101 -19 -139 10 -24 18 -26 26 -29 105 l-3
87 33 20 c41 25 110 26 149 3z"/>
<path d="M1521 755 c-92 -29 -151 -115 -151 -222 1 -109 47 -182 140 -221 46
-19 152 -12 178 11 17 16 20 16 25 2 5 -11 21 -15 57 -15 l50 0 0 225 0 225
-50 0 c-35 0 -52 -5 -56 -14 -5 -12 -12 -11 -47 5 -49 22 -85 23 -146 4z m163
-116 c25 -19 26 -25 26 -110 l0 -89 -32 -20 c-54 -32 -129 -20 -172 28 -45 51
-28 158 32 195 39 24 113 22 146 -4z"/>
<path d="M2260 759 c-13 -5 -32 -17 -41 -25 -15 -13 -17 -13 -22 6 -4 17 -13
20 -56 20 l-51 0 0 -225 0 -225 55 0 55 0 0 161 0 160 45 20 c32 14 55 18 81
13 l35 -6 -3 53 c-3 54 -3 54 -38 56 -19 1 -46 -2 -60 -8z"/>
<path d="M3071 749 c-40 -17 -46 -18 -53 -4 -6 10 -24 15 -53 15 l-45 0 0
-225 0 -225 55 0 55 0 0 159 0 159 28 18 c39 27 106 25 134 -4 22 -21 23 -32
26 -177 l4 -155 54 0 54 0 0 148 c0 81 -4 164 -9 185 -11 48 -43 84 -96 108
-52 24 -99 23 -154 -2z"/>
<path d="M1900 535 l0 -225 55 0 55 0 0 225 0 225 -55 0 -55 0 0 -225z"/>
</g>
</svg>
