<?xml version="1.0" standalone="no"?>
<!DOCTYPE svg PUBLIC "-//W3C//DTD SVG 20010904//EN"
 "http://www.w3.org/TR/2001/REC-SVG-20010904/DTD/svg10.dtd">
<svg version="1.0" xmlns="http://www.w3.org/2000/svg"
 width="385.000000pt" height="78.000000pt" viewBox="0 0 385.000000 78.000000"
 preserveAspectRatio="xMidYMid meet">

<g transform="translate(0.000000,78.000000) scale(0.100000,-0.100000)"
fill="#000000" stroke="none">
<path d="M280 655 l-115 -115 43 -42 42 -43 75 75 75 74 75 -74 75 -75 42 43
43 42 -115 115 c-63 63 -117 115 -120 115 -3 0 -57 -52 -120 -115z"/>
<path d="M2267 603 c-7 -11 -177 -414 -177 -419 0 -2 20 -4 44 -4 43 0 44 1
64 50 l21 50 89 0 89 0 21 -50 c21 -50 21 -50 66 -50 26 0 46 2 46 4 0 2 -40
97 -88 212 l-89 209 -40 3 c-23 2 -43 -1 -46 -5z m73 -178 c12 -31 20 -58 17
-61 -2 -3 -27 -4 -55 -2 l-50 3 26 62 c14 34 28 60 32 58 4 -3 18 -30 30 -60z"/>
<path d="M3205 595 c-73 -25 -135 -118 -135 -201 0 -80 48 -157 121 -195 74
-37 204 -19 249 36 12 14 10 20 -12 41 l-25 26 -39 -21 c-90 -48 -186 -4 -194
89 -5 59 1 82 34 118 31 33 40 37 84 37 36 0 59 -6 80 -22 l31 -23 25 31 c14
17 26 35 26 40 0 6 -24 21 -52 34 -61 28 -131 32 -193 10z"/>
<path d="M960 390 l0 -210 105 0 c138 0 198 13 230 52 41 49 30 122 -24 154
-28 17 -29 18 -11 31 31 22 43 75 26 116 -23 56 -56 67 -201 67 l-125 0 0
-210z m237 114 c16 -22 16 -26 -1 -49 -10 -14 -30 -20 -80 -23 l-66 -4 0 44
c0 25 3 48 8 52 14 15 125 -1 139 -20z m11 -160 c12 -8 22 -24 22 -34 0 -33
-39 -50 -112 -50 l-68 0 0 50 0 50 68 0 c45 0 75 -5 90 -16z"/>
<path d="M1430 390 l0 -210 40 0 40 0 0 210 0 210 -40 0 -40 0 0 -210z"/>
<path d="M1640 390 l0 -210 45 0 44 0 3 136 3 136 103 -136 c102 -134 103
-136 142 -136 l40 0 0 210 0 210 -45 0 -44 0 -3 -127 -3 -128 -98 128 -98 127
-45 0 -44 0 0 -210z"/>
<path d="M2602 393 l3 -208 42 -3 42 -3 3 137 3 137 104 -137 c101 -134 104
-136 142 -136 l39 0 0 210 0 210 -45 0 -44 0 -3 -127 -3 -128 -96 125 -95 125
-47 3 -47 3 2 -208z"/>
<path d="M3540 390 l0 -210 155 0 155 0 0 40 0 40 -110 0 -110 0 0 50 0 50
101 0 100 0 -3 38 -3 37 -97 3 -98 3 0 39 0 40 110 0 110 0 0 40 0 40 -155 0
-155 0 0 -210z"/>
<path d="M55 430 l-39 -40 42 -43 42 -42 42 42 42 43 -39 40 c-21 22 -42 40
-45 40 -3 0 -24 -18 -45 -40z"/>
<path d="M355 430 l-39 -40 42 -43 42 -42 42 42 42 43 -39 40 c-21 22 -42 40
-45 40 -3 0 -24 -18 -45 -40z"/>
<path d="M655 430 l-39 -40 42 -43 42 -42 42 42 42 43 -39 40 c-21 22 -42 40
-45 40 -3 0 -24 -18 -45 -40z"/>
<path d="M205 280 l-39 -40 117 -118 117 -117 117 118 118 117 -43 42 -42 43
-75 -75 -75 -74 -73 72 c-40 39 -75 72 -78 72 -3 0 -23 -18 -44 -40z"/>
</g>
</svg>
