<?xml version="1.0" standalone="no"?>
<!DOCTYPE svg PUBLIC "-//W3C//DTD SVG 20010904//EN"
 "http://www.w3.org/TR/2001/REC-SVG-20010904/DTD/svg10.dtd">
<svg version="1.0" xmlns="http://www.w3.org/2000/svg"
 width="379.000000pt" height="83.000000pt" viewBox="0 0 379.000000 83.000000"
 preserveAspectRatio="xMidYMid meet">

<g transform="translate(0.000000,83.000000) scale(0.100000,-0.100000)"
fill="#000000" stroke="none">
<path d="M1862 433 l3 -397 50 -13 c32 -9 87 -12 150 -10 144 5 212 42 266
147 32 63 33 196 2 256 -28 52 -90 108 -139 125 -46 16 -157 16 -196 0 l-28
-11 0 150 0 150 -55 0 -55 0 2 -397z m292 3 c18 -7 44 -29 57 -47 33 -47 35
-163 3 -206 -46 -62 -127 -92 -204 -75 l-35 8 -3 155 c-2 153 -2 156 20 167
33 15 123 14 162 -2z"/>
<path d="M1087 760 c-33 -26 -37 -78 -9 -103 25 -23 78 -21 102 3 59 59 -27
152 -93 100z"/>
<path d="M231 550 c-135 -28 -220 -149 -208 -296 8 -110 75 -198 176 -232 63
-22 219 -10 236 18 3 4 -4 24 -15 43 l-20 34 -69 -5 c-58 -4 -75 -1 -109 18
-53 30 -82 83 -82 149 0 67 20 112 61 142 29 20 47 24 112 25 75 1 80 3 98 30
10 16 19 34 19 41 0 27 -126 48 -199 33z"/>
<path d="M657 550 c-129 -32 -207 -132 -207 -264 0 -159 94 -264 244 -274 88
-5 143 9 197 51 116 89 133 289 34 404 -57 67 -179 105 -268 83z m153 -120
c81 -58 86 -217 8 -290 -69 -64 -188 -37 -235 54 -22 43 -19 135 7 185 39 77
148 102 220 51z"/>
<path d="M1445 550 c-33 -5 -80 -15 -105 -22 l-45 -14 -3 -247 -2 -247 60 0
60 0 0 210 0 209 35 7 c63 11 144 0 168 -25 21 -20 22 -31 25 -211 l3 -190 55
0 54 0 0 199 c0 207 -5 238 -43 280 -44 48 -146 68 -262 51z"/>
<path d="M2570 554 c-14 -3 -46 -12 -72 -20 l-48 -16 0 -50 c0 -44 2 -49 18
-43 60 25 111 35 150 30 56 -8 82 -34 82 -83 l0 -38 -95 -11 c-107 -13 -148
-31 -183 -84 -19 -27 -23 -43 -19 -82 5 -59 30 -95 83 -122 33 -17 59 -20 159
-20 66 0 132 3 148 8 l27 7 0 183 c0 100 -5 200 -11 222 -12 44 -40 80 -81
101 -29 15 -119 25 -158 18z m130 -379 c0 -72 -1 -75 -25 -81 -30 -7 -99 2
-127 17 -27 14 -40 53 -28 84 13 33 61 54 128 55 l52 0 0 -75z"/>
<path d="M3017 546 c-77 -21 -117 -71 -117 -146 0 -88 39 -128 159 -164 67
-20 91 -40 91 -77 0 -62 -104 -78 -199 -30 l-41 21 0 -54 0 -54 47 -16 c53
-18 150 -21 205 -6 45 13 93 66 102 114 17 91 -37 161 -147 191 -74 20 -107
44 -107 79 0 59 97 76 183 32 l47 -23 0 52 c0 52 -1 53 -39 68 -57 23 -129 28
-184 13z"/>
<path d="M3515 551 c-47 -12 -87 -36 -121 -73 -51 -53 -67 -95 -72 -183 -4
-68 -1 -89 18 -133 27 -62 80 -113 143 -137 60 -23 204 -17 260 10 35 18 37
21 37 67 0 26 -2 48 -4 48 -2 0 -25 -10 -52 -21 -61 -28 -154 -29 -207 -5 -43
21 -74 61 -83 105 l-6 31 182 0 182 0 -3 83 c-5 101 -32 152 -101 185 -49 24
-129 35 -173 23z m116 -107 c17 -8 37 -30 45 -49 27 -65 28 -65 -115 -65
l-130 0 11 33 c14 41 26 56 63 79 37 22 86 23 126 2z"/>
<path d="M1070 280 l0 -260 60 0 60 0 0 260 0 260 -60 0 -60 0 0 -260z"/>
</g>
</svg>
