<?xml version="1.0" standalone="no"?>
<!DOCTYPE svg PUBLIC "-//W3C//DTD SVG 20010904//EN"
 "http://www.w3.org/TR/2001/REC-SVG-20010904/DTD/svg10.dtd">
<svg version="1.0" xmlns="http://www.w3.org/2000/svg"
 width="386.000000pt" height="76.000000pt" viewBox="0 0 386.000000 76.000000"
 preserveAspectRatio="xMidYMid meet">

<g transform="translate(0.000000,76.000000) scale(0.100000,-0.100000)"
fill="#000000" stroke="none">
<path d="M577 687 l-108 -70 48 -32 c26 -17 76 -49 110 -69 l62 -39 106 68
c58 37 105 69 105 71 0 4 -69 49 -175 116 l-40 25 -108 -70z"/>
<path d="M123 683 l-102 -66 102 -65 c55 -35 107 -66 113 -69 7 -2 60 27 119
65 l106 69 -105 66 c-58 37 -111 67 -118 66 -7 0 -59 -30 -115 -66z"/>
<path d="M2670 400 l0 -250 40 0 c36 0 40 3 40 25 0 28 17 34 27 10 9 -25 58
-45 110 -45 101 0 152 67 153 200 0 127 -51 190 -156 190 -45 0 -59 -5 -89
-31 l-35 -31 0 91 0 91 -45 0 -45 0 0 -250z m237 35 c49 -34 50 -159 2 -198
-12 -9 -38 -17 -59 -17 -57 0 -90 43 -90 117 0 47 4 59 29 84 34 33 82 39 118
14z"/>
<path d="M1090 379 l0 -231 133 4 c130 3 135 4 171 32 55 42 76 94 76 194 0
119 -26 174 -102 213 -30 16 -59 19 -158 19 l-120 0 0 -231z m242 122 c30 -27
33 -34 36 -104 7 -126 -26 -167 -133 -167 l-55 0 0 150 0 150 60 0 c52 0 64
-4 92 -29z"/>
<path d="M1685 516 c-16 -7 -36 -25 -44 -40 -16 -29 -31 -19 -31 22 0 19 -5
22 -40 22 l-40 0 0 -191 0 -190 48 3 47 3 5 122 c6 143 12 153 89 161 l51 5 0
48 c0 47 -1 49 -27 49 -16 -1 -41 -7 -58 -14z"/>
<path d="M1892 513 c-73 -36 -111 -130 -93 -229 13 -68 34 -100 82 -125 55
-28 161 -26 213 4 122 69 109 299 -21 353 -44 19 -140 17 -181 -3z m139 -73
c56 -31 66 -153 15 -197 -36 -31 -86 -30 -123 1 -25 22 -28 30 -28 91 0 61 3
69 28 91 30 25 75 31 108 14z"/>
<path d="M2378 514 c-15 -8 -33 -24 -40 -37 -12 -22 -12 -22 -18 8 -5 27 -9
30 -48 33 l-42 3 0 -255 0 -256 50 0 50 0 0 91 0 91 31 -26 c25 -21 41 -26 86
-26 74 0 114 25 142 89 39 92 23 201 -39 263 -34 35 -42 38 -91 38 -30 -1 -66
-7 -81 -16z m103 -93 c24 -25 29 -37 29 -81 0 -83 -28 -119 -93 -120 -74 0
-106 65 -82 167 15 65 96 84 146 34z"/>
<path d="M3195 516 c-123 -55 -142 -270 -32 -350 42 -31 193 -31 233 0 56 41
69 69 72 157 2 71 0 88 -20 122 -33 56 -88 85 -163 84 -33 0 -73 -6 -90 -13z
m149 -89 c29 -29 40 -85 26 -136 -13 -48 -42 -71 -90 -71 -61 1 -90 39 -90
119 0 69 35 111 91 111 28 0 47 -7 63 -23z"/>
<path d="M3516 468 c21 -29 50 -69 66 -89 l27 -36 -69 -93 c-39 -52 -70 -95
-70 -97 0 -2 25 -3 55 -3 l54 0 41 60 c22 33 42 60 44 60 2 0 21 -27 42 -60
l39 -60 53 0 c28 0 52 2 52 5 0 3 -29 46 -65 95 -39 54 -63 96 -59 103 4 7 34
47 66 90 l59 77 -55 0 -56 0 -36 -55 c-20 -30 -38 -55 -39 -55 -1 0 -19 25
-39 55 l-36 55 -56 0 -56 0 38 -52z"/>
<path d="M128 401 l-108 -68 111 -71 111 -71 42 26 c22 15 72 46 109 70 l69
44 -103 66 c-57 36 -108 67 -114 69 -5 2 -58 -27 -117 -65z"/>
<path d="M572 401 l-104 -68 107 -69 c59 -38 112 -68 119 -66 16 5 205 126
206 132 0 7 -209 140 -218 139 -4 0 -53 -31 -110 -68z"/>
<path d="M352 214 c-69 -45 -100 -70 -93 -77 5 -5 54 -38 108 -72 l98 -62 86
56 c48 31 96 63 109 71 21 15 19 17 -85 83 -58 37 -109 67 -113 67 -4 0 -53
-30 -110 -66z"/>
</g>
</svg>
